# xmcd
#
# Track frame offsets:
#  150
#  17192
#  46339
#
# Disc length: 1054 seconds
#
# Revision: 0
# Processed by: cddbd v1.5.1PL2 Copyright (c) Steve Scherf et al.
# Submitted via: Collectorz.com_Music_Collector 6.11
#
DISCID=1d041c03
DTITLE=Astralasia - One Fine Day - Remixes
DYEAR=1998
DGENRE=Club - Dance - Electronic - Trance
TTITLE0=One Fine Day (Tripped Up Mix)
TTITLE1=One Fine Day (Black Hole Mix)
TTITLE2=One Fine Day (Quirk Mix)
EXTD=
EXTT0=
EXTT1=
EXTT2=
PLAYORDER=
